<mxfile host="app.diagrams.net" modified="2021-06-08T07:23:03.024Z" agent="5.0 (X11; Linux x86_64) AppleWebKit/537.36 (KHTML, like Gecko) Chrome/90.0.4430.93 Safari/537.36" etag="WEqwzLxc9BymlL-mxepo" version="14.7.5" type="github">
  <diagram id="LOM54xC68HSuMUBU8-AQ" name="Page-1">
    <mxGraphModel dx="1035" dy="594" grid="1" gridSize="10" guides="1" tooltips="1" connect="1" arrows="1" fold="1" page="1" pageScale="1" pageWidth="827" pageHeight="1169" math="0" shadow="0">
      <root>
        <mxCell id="0" />
        <mxCell id="1" parent="0" />
        <mxCell id="0wlfj0eliYuSL7KErSTi-5" style="edgeStyle=orthogonalEdgeStyle;rounded=0;orthogonalLoop=1;jettySize=auto;html=1;entryX=0;entryY=0.5;entryDx=0;entryDy=0;" edge="1" parent="1" source="0wlfj0eliYuSL7KErSTi-1" target="0wlfj0eliYuSL7KErSTi-3">
          <mxGeometry relative="1" as="geometry" />
        </mxCell>
        <mxCell id="0wlfj0eliYuSL7KErSTi-6" style="edgeStyle=orthogonalEdgeStyle;rounded=0;orthogonalLoop=1;jettySize=auto;html=1;" edge="1" parent="1" source="0wlfj0eliYuSL7KErSTi-1" target="0wlfj0eliYuSL7KErSTi-4">
          <mxGeometry relative="1" as="geometry" />
        </mxCell>
        <mxCell id="0wlfj0eliYuSL7KErSTi-1" value="&lt;div style=&quot;background-color: rgb(255 , 255 , 255) ; font-family: &amp;#34;droid sans mono&amp;#34; , monospace , monospace , &amp;#34;droid sans fallback&amp;#34; ; font-size: 18px ; line-height: 24px&quot;&gt;device_register&lt;/div&gt;" style="whiteSpace=wrap;html=1;" vertex="1" parent="1">
          <mxGeometry x="20" y="270" width="130" height="60" as="geometry" />
        </mxCell>
        <mxCell id="0wlfj0eliYuSL7KErSTi-3" value="&lt;div style=&quot;background-color: rgb(255 , 255 , 255) ; font-family: &amp;#34;droid sans mono&amp;#34; , monospace , monospace , &amp;#34;droid sans fallback&amp;#34; ; font-size: 18px ; line-height: 24px&quot;&gt;device_initialize&lt;/div&gt;" style="whiteSpace=wrap;html=1;" vertex="1" parent="1">
          <mxGeometry x="200" y="170" width="140" height="60" as="geometry" />
        </mxCell>
        <mxCell id="0wlfj0eliYuSL7KErSTi-8" style="edgeStyle=orthogonalEdgeStyle;rounded=0;orthogonalLoop=1;jettySize=auto;html=1;entryX=0;entryY=0.5;entryDx=0;entryDy=0;" edge="1" parent="1" source="0wlfj0eliYuSL7KErSTi-4" target="0wlfj0eliYuSL7KErSTi-7">
          <mxGeometry relative="1" as="geometry" />
        </mxCell>
        <mxCell id="0wlfj0eliYuSL7KErSTi-4" value="&lt;div style=&quot;background-color: rgb(255 , 255 , 255) ; font-family: &amp;#34;droid sans mono&amp;#34; , monospace , monospace , &amp;#34;droid sans fallback&amp;#34; ; font-size: 18px ; line-height: 24px&quot;&gt;device_add&lt;/div&gt;" style="whiteSpace=wrap;html=1;" vertex="1" parent="1">
          <mxGeometry x="200" y="270" width="120" height="60" as="geometry" />
        </mxCell>
        <mxCell id="0wlfj0eliYuSL7KErSTi-7" value="&lt;div style=&quot;background-color: rgb(255 , 255 , 255) ; font-family: &amp;#34;droid sans mono&amp;#34; , monospace , monospace , &amp;#34;droid sans fallback&amp;#34; ; font-size: 18px ; line-height: 24px&quot;&gt;kobject_uevent&lt;/div&gt;" style="whiteSpace=wrap;html=1;" vertex="1" parent="1">
          <mxGeometry x="390" y="270" width="150" height="60" as="geometry" />
        </mxCell>
        <mxCell id="0wlfj0eliYuSL7KErSTi-9" value="&lt;div style=&quot;background-color: rgb(255 , 255 , 255) ; font-family: &amp;#34;droid sans mono&amp;#34; , monospace , monospace , &amp;#34;droid sans fallback&amp;#34; ; font-size: 18px ; line-height: 24px&quot;&gt;bus_probe_device&lt;/div&gt;" style="whiteSpace=wrap;html=1;" vertex="1" parent="1">
          <mxGeometry x="390" y="370" width="170" height="60" as="geometry" />
        </mxCell>
      </root>
    </mxGraphModel>
  </diagram>
</mxfile>
